<?xml version="1.0" standalone="no"?>
<!DOCTYPE svg PUBLIC "-//W3C//DTD SVG 20010904//EN"
 "http://www.w3.org/TR/2001/REC-SVG-20010904/DTD/svg10.dtd">
<svg version="1.0" xmlns="http://www.w3.org/2000/svg"
 width="700.000000pt" height="700.000000pt" viewBox="0 0 700.000000 700.000000"
 preserveAspectRatio="xMidYMid meet">
<metadata>
Created by potrace 1.11, written by Peter Selinger 2001-2013
</metadata>
<g transform="translate(0.000000,700.000000) scale(0.100000,-0.100000)"
fill="#000000" stroke="none">
<path d="M3958 6085 c-3 -3 -15 -8 -27 -10 -29 -5 -82 -22 -161 -51 -36 -13
-74 -24 -83 -24 -10 0 -27 -5 -38 -10 -29 -16 -129 -20 -177 -7 -36 9 -45 9
-52 -3 -6 -9 -5 -17 3 -22 7 -4 8 -8 2 -9 -5 0 -19 -2 -30 -5 -11 -2 -63 -5
-115 -7 l-95 -2 -3 -27 c-4 -34 25 -98 44 -98 19 0 18 -16 -2 -24 -12 -5 -13
-10 -6 -19 6 -7 10 -54 10 -104 -1 -56 4 -98 11 -107 7 -8 9 -30 6 -52 -14
-101 -18 -120 -27 -137 -5 -10 -11 -36 -14 -58 -3 -22 -9 -52 -15 -67 -6 -14
-13 -45 -16 -67 -3 -22 -12 -53 -20 -68 -8 -15 -16 -45 -19 -65 -5 -43 -21
-93 -40 -130 -8 -15 -14 -37 -14 -49 0 -33 -21 -75 -49 -100 -25 -20 -25 -22
-8 -41 10 -11 14 -23 9 -26 -5 -3 -13 -25 -16 -48 -8 -51 -29 -83 -49 -75 -17
6 -37 -11 -37 -30 0 -8 10 -27 22 -44 20 -26 21 -32 9 -51 -7 -12 -15 -34 -18
-48 -2 -15 -13 -45 -23 -66 -11 -21 -20 -51 -20 -66 0 -15 -4 -28 -8 -28 -12
0 -67 -118 -59 -126 3 -4 -5 -26 -18 -49 -14 -23 -25 -50 -25 -60 0 -10 -6
-26 -13 -34 -8 -9 -36 -72 -62 -141 -26 -69 -53 -132 -59 -140 -6 -8 -25 -41
-41 -72 -22 -43 -37 -59 -57 -63 -24 -6 -37 -24 -44 -62 -1 -7 2 -13 7 -13 16
0 9 -27 -27 -104 -39 -82 -51 -96 -65 -75 -6 10 -11 11 -19 3 -12 -12 -3 -44
11 -44 5 0 9 -7 9 -15 0 -8 -9 -15 -20 -15 -15 0 -19 5 -16 23 5 30 -11 57
-33 57 -26 0 -71 -38 -71 -61 0 -17 -5 -18 -57 -13 -32 4 -72 7 -89 7 -82 -1
-292 -77 -432 -156 -41 -23 -84 -48 -98 -55 -13 -7 -32 -24 -41 -38 -10 -14
-31 -40 -48 -59 -55 -61 -135 -169 -135 -181 0 -3 -14 -24 -31 -45 -58 -74
-162 -299 -145 -316 3 -3 0 -13 -6 -21 -17 -20 -12 -170 8 -235 45 -146 58
-182 85 -232 45 -84 94 -157 125 -187 16 -15 34 -32 39 -38 32 -33 101 -81
157 -108 116 -57 172 -82 184 -82 7 0 14 -5 16 -11 2 -7 44 -24 93 -40 50 -15
123 -39 162 -52 110 -39 177 -50 298 -50 149 -1 183 2 203 13 9 5 44 16 77 25
74 21 142 59 218 123 31 27 63 49 70 49 40 0 166 63 214 106 57 52 58 62 12
108 -10 10 -19 27 -19 36 0 31 27 119 43 144 14 21 29 71 43 148 3 14 7 28 10
32 2 4 7 80 10 167 4 137 3 162 -11 175 -9 10 -13 25 -10 39 11 43 -69 238
-97 238 -5 0 -8 6 -8 13 0 20 -99 155 -142 196 -21 19 -38 40 -38 47 0 6 -28
26 -62 44 -35 18 -71 40 -82 50 -18 17 -18 18 8 36 28 17 68 83 74 119 1 11 3
40 3 64 0 24 7 54 15 67 25 37 -8 63 -36 29 -18 -22 -35 -3 -21 23 19 36 -8
37 -47 1 -20 -19 -38 -37 -40 -41 -6 -13 -22 -9 -22 5 0 8 12 42 26 78 14 35
28 70 30 79 13 58 51 174 71 220 31 68 82 204 92 245 4 17 18 56 29 88 12 31
22 59 22 62 0 3 0 10 0 15 0 6 7 10 15 10 24 0 64 45 60 66 -2 11 -4 23 -4 27
-1 4 -9 7 -18 5 -22 -4 -21 5 11 112 15 46 24 91 21 100 -3 8 -3 11 1 7 9 -9
34 47 34 77 0 12 4 26 8 32 5 5 19 43 32 84 12 41 33 109 46 150 12 41 30 101
39 132 8 31 22 61 29 65 14 7 55 134 71 213 4 19 8 105 10 190 4 163 10 216
25 225 8 5 42 10 145 20 28 2 69 7 91 11 25 3 44 2 48 -4 3 -6 8 -167 11 -357
2 -191 6 -354 9 -363 8 -25 17 -202 18 -326 0 -101 16 -194 38 -221 5 -5 11
-59 15 -120 4 -60 9 -121 11 -135 1 -14 6 -59 9 -100 10 -105 29 -199 81 -390
25 -91 48 -180 50 -199 2 -18 9 -41 14 -51 5 -10 20 -48 33 -84 21 -55 22 -68
11 -77 -20 -16 -17 -28 4 -22 12 3 19 -1 19 -10 0 -8 12 -40 27 -71 31 -63 27
-77 -25 -95 -25 -8 -29 -7 -29 7 -1 15 -3 14 -16 -3 -8 -11 -19 -26 -23 -33
-4 -7 -27 -20 -51 -28 -88 -30 -216 -139 -257 -219 -9 -16 -29 -46 -44 -65
-37 -46 -95 -174 -104 -228 -4 -23 -1 -72 5 -110 10 -54 10 -73 0 -91 -10 -19
-9 -26 5 -41 13 -14 15 -28 10 -60 -5 -29 -3 -46 7 -58 8 -9 15 -27 16 -40 0
-13 12 -39 26 -57 14 -19 26 -39 26 -45 0 -23 41 -88 95 -149 31 -35 63 -75
72 -88 8 -12 21 -23 29 -23 7 0 40 -26 74 -57 33 -32 66 -59 72 -61 7 -2 15
-7 18 -11 8 -13 62 -38 173 -82 115 -46 154 -56 247 -65 36 -3 99 -14 140 -24
43 -10 97 -16 125 -13 28 2 62 5 77 6 14 1 30 5 34 9 4 5 24 8 44 8 25 0 50 9
77 29 43 31 262 141 281 141 16 0 113 81 164 137 24 26 75 80 115 122 102 107
121 148 164 370 10 50 9 74 -7 141 -3 14 -5 30 -5 35 1 6 3 37 6 70 3 33 1 71
-4 85 -5 14 -12 57 -14 96 -6 77 4 58 -141 275 -38 57 -72 106 -75 109 -3 3
-19 22 -34 43 -15 20 -34 37 -41 37 -8 0 -36 21 -62 46 -27 26 -67 55 -89 64
-22 10 -56 32 -75 50 -38 34 -110 75 -110 63 0 -5 -4 -2 -8 5 -5 7 -26 14 -48
17 -21 2 -48 6 -59 9 -68 15 -123 30 -141 38 -15 7 -28 6 -43 -1 -12 -7 -27
-11 -34 -9 -16 3 -115 -31 -122 -43 -4 -5 -14 -5 -25 1 -26 14 -40 13 -34 -3
4 -12 -88 -91 -123 -104 -25 -10 -60 26 -100 104 -67 131 -233 570 -233 617 0
13 -7 41 -16 62 -10 22 -18 50 -19 64 -1 14 -9 63 -18 110 -9 47 -18 111 -21
143 -3 32 -10 66 -16 77 -5 10 -10 43 -10 74 0 30 -4 57 -9 60 -4 3 -9 41 -11
83 -1 43 -4 94 -6 113 -12 106 -27 406 -24 498 0 17 -4 40 -9 51 -6 10 -7 30
-3 46 7 25 9 26 22 10 8 -10 13 -20 11 -22 -7 -7 10 -93 20 -98 5 -4 9 -13 9
-22 0 -19 78 -146 142 -232 56 -74 167 -199 222 -250 22 -20 51 -48 65 -62 58
-58 215 -138 361 -184 47 -15 103 -35 125 -45 22 -10 64 -21 94 -25 30 -3 62
-10 73 -16 28 -15 198 -27 288 -20 27 2 62 -2 160 -19 52 -9 418 -25 505 -22
30 1 55 39 55 82 0 38 -11 50 -49 50 -9 0 -56 42 -104 93 -48 50 -107 112
-131 137 -25 25 -55 70 -69 100 -13 30 -37 72 -53 92 -16 20 -45 63 -64 95
-19 32 -72 94 -118 139 l-83 80 -9 68 c-5 39 -15 76 -24 84 -14 14 -17 14 -34
-1 -10 -9 -24 -17 -30 -17 -15 0 -66 54 -93 100 -22 36 -115 102 -204 144 -93
44 -143 64 -149 59 -3 -3 -54 19 -113 48 -59 30 -124 55 -143 57 -34 3 -146
35 -185 53 -11 5 -40 11 -65 13 -25 2 -58 9 -74 15 -17 7 -33 8 -40 3 -6 -5
-19 -9 -28 -9 -20 0 -25 36 -7 54 9 9 9 20 0 44 -6 17 -11 44 -11 58 0 42 -26
71 -64 71 -18 0 -35 -2 -38 -5z m-528 -205 c0 -5 -2 -10 -4 -10 -3 0 -8 5 -11
10 -3 6 -1 10 4 10 6 0 11 -4 11 -10z"/>
<path d="M3435 5203 c-29 -32 -31 -76 -2 -81 23 -5 87 60 87 87 0 32 -52 28
-85 -6z"/>
<path d="M3630 5124 c0 -8 5 -12 10 -9 6 3 10 10 10 16 0 5 -4 9 -10 9 -5 0
-10 -7 -10 -16z"/>
<path d="M3497 4774 c-15 -14 -27 -30 -27 -35 0 -4 -3 -15 -7 -24 -11 -30 35
2 53 36 22 44 13 55 -19 23z"/>
<path d="M3338 4613 c-34 -38 -51 -71 -44 -90 6 -14 10 -12 33 8 14 13 32 38
39 56 26 60 14 70 -28 26z"/>
<path d="M3187 4584 c-4 -4 -7 -14 -7 -23 0 -11 3 -12 11 -4 6 6 10 16 7 23
-2 6 -7 8 -11 4z"/>
<path d="M2326 4402 c-4 -13 -5 -26 -2 -29 10 -11 18 4 14 29 l-4 23 -8 -23z"/>
<path d="M3181 4381 c-14 -19 -18 -32 -11 -36 14 -9 36 10 43 35 8 32 -10 33
-32 1z"/>
<path d="M5827 4242 c-9 -10 -17 -29 -17 -41 0 -18 3 -20 19 -11 23 12 37 48
24 61 -6 6 -16 2 -26 -9z"/>
<path d="M2756 4211 c-4 -7 -5 -15 -2 -18 9 -9 19 4 14 18 -4 11 -6 11 -12 0z"/>
<path d="M2624 4149 c-10 -17 13 -36 27 -22 12 12 4 33 -11 33 -5 0 -12 -5
-16 -11z"/>
<path d="M6147 4089 c-9 -6 -17 -14 -17 -19 0 -16 30 -11 37 5 8 21 1 25 -20
14z"/>
<path d="M2680 4044 c-6 -15 -6 -32 -1 -41 7 -13 11 -12 25 8 9 13 16 31 16
41 0 27 -29 21 -40 -8z"/>
<path d="M5857 4034 c-28 -28 -27 -44 3 -44 12 0 21 10 25 31 9 41 3 44 -28
13z"/>
<path d="M5710 3982 c-21 -17 -21 -42 -1 -42 9 0 34 51 28 57 -2 2 -15 -5 -27
-15z"/>
<path d="M4145 3951 c-3 -5 -1 -12 5 -16 5 -3 10 1 10 9 0 18 -6 21 -15 7z"/>
<path d="M5837 3905 c-11 -7 -17 -23 -15 -34 3 -20 4 -21 26 -6 12 9 22 25 22
36 0 22 -8 24 -33 4z"/>
<path d="M4227 3886 c-3 -8 1 -20 9 -27 13 -10 17 -10 25 2 5 8 9 20 9 27 0
17 -37 15 -43 -2z"/>
<path d="M2482 3838 c-18 -18 -15 -53 7 -79 15 -19 22 -21 32 -12 15 15 14 70
-2 89 -14 17 -21 18 -37 2z"/>
<path d="M4105 3770 c-4 -6 -3 -16 3 -22 6 -6 12 -6 17 2 4 6 3 16 -3 22 -6 6
-12 6 -17 -2z"/>
<path d="M5432 3721 c-14 -8 -27 -61 -15 -61 10 0 34 24 46 46 8 14 -15 25
-31 15z"/>
<path d="M4710 3690 c0 -11 4 -20 9 -20 11 0 22 26 14 34 -12 12 -23 5 -23
-14z"/>
<path d="M2910 3690 c0 -5 -14 -22 -31 -37 -35 -31 -51 -65 -43 -88 14 -36 48
-5 75 68 22 59 23 67 9 67 -5 0 -10 -4 -10 -10z"/>
<path d="M3027 3651 c-23 -28 -36 -61 -23 -61 17 0 36 15 36 29 0 9 5 22 11
28 6 6 9 17 7 23 -2 8 -15 0 -31 -19z"/>
<path d="M5256 3665 c-3 -8 -2 -15 3 -15 5 0 14 7 21 15 10 12 10 15 -3 15 -8
0 -17 -7 -21 -15z"/>
<path d="M1645 3620 c-7 -12 2 -30 16 -30 12 0 12 27 0 35 -5 3 -12 1 -16 -5z"/>
<path d="M3107 3594 c-9 -10 2 -24 19 -24 8 0 14 7 14 15 0 15 -21 21 -33 9z"/>
<path d="M3735 3587 c-4 -10 -5 -21 -1 -24 10 -10 18 4 13 24 -4 17 -4 17 -12
0z"/>
<path d="M2477 3583 c-11 -10 -8 -41 4 -49 16 -9 43 21 36 40 -7 16 -28 21
-40 9z"/>
<path d="M5315 3570 c-11 -17 5 -32 21 -19 8 6 14 15 14 20 0 12 -27 11 -35
-1z"/>
<path d="M2295 3484 c-14 -15 -15 -19 -2 -31 17 -17 57 -9 57 11 0 13 -20 36
-31 36 -4 0 -15 -7 -24 -16z"/>
<path d="M4807 3474 c-3 -3 -3 -12 0 -20 4 -11 9 -12 19 -3 8 6 11 15 8 20 -6
10 -18 12 -27 3z"/>
<path d="M2412 3427 c3 -24 21 -27 26 -4 2 8 -4 17 -13 21 -13 4 -16 1 -13
-17z"/>
<path d="M5392 3420 c-27 -16 -33 -26 -30 -48 7 -62 98 -21 98 44 0 30 -23 31
-68 4z"/>
<path d="M2364 3377 c-15 -40 16 -74 35 -39 8 15 6 23 -9 37 -17 16 -20 16
-26 2z"/>
<path d="M1170 3175 c0 -8 5 -15 10 -15 6 0 10 7 10 15 0 8 -4 15 -10 15 -5 0
-10 -7 -10 -15z"/>
<path d="M1030 3027 c0 -8 7 -18 16 -21 11 -4 14 -1 12 11 -4 21 -28 30 -28
10z"/>
<path d="M1242 2873 c2 -10 10 -18 18 -18 8 0 16 8 18 18 2 12 -3 17 -18 17
-15 0 -20 -5 -18 -17z"/>
<path d="M1306 2751 c-4 -7 -5 -15 -2 -18 9 -9 19 4 14 18 -4 11 -6 11 -12 0z"/>
<path d="M807 1849 c8 -8 16 -8 30 0 16 9 14 10 -11 11 -22 0 -27 -3 -19 -11z"/>
<path d="M1312 1350 c-16 -26 -15 -40 3 -40 17 0 34 29 28 48 -7 17 -16 15
-31 -8z"/>
<path d="M1620 1285 c-13 -16 -10 -47 5 -52 22 -7 48 23 41 45 -8 25 -28 28
-46 7z"/>
</g>
</svg>
